# xmcd
#
# Track frame offsets:
#	150
#	13788
#	27828
#	49023
#	57187
#	69566
#	82627
#	92000
#	105572
#	114086
#	132008
#	140831
#	158564
#
# Disc length: 2141 seconds
#
# Revision: 0
# Processed by: cddbd v1.4PL0 Copyright (c) Steve Scherf et al.
# Submitted via: dBpowerAMP V4.0
#
DISCID=98085b0d
DTITLE=Grace Braun - It Won't Hurt
DYEAR=1996
DGENRE=Country
TTITLE0=Do Right
TTITLE1=Mermaid And The Sailor
TTITLE2=It Won't Hurt
TTITLE3=O my Ladies
TTITLE4=Bittersweet
TTITLE5=Lover's Dream
TTITLE6=What Wondrous Love is This
TTITLE7=Stand by Me
TTITLE8=Carter's Lullaby
TTITLE9=Hopeless
TTITLE10=Liftin' me Up
TTITLE11=Jenny Wren
TTITLE12=Untitled
EXTD=Vocalist from DQE, 1996
EXTT0=
EXTT1=
EXTT2=
EXTT3=
EXTT4=
EXTT5=
EXTT6=
EXTT7=
EXTT8=
EXTT9=
EXTT10=
EXTT11=
EXTT12=
PLAYORDER=
